<?xml version="1.0" standalone="no"?><!DOCTYPE svg PUBLIC "-//W3C//DTD SVG 1.1//EN" "http://www.w3.org/Graphics/SVG/1.1/DTD/svg11.dtd"><svg t="1498958650163" class="icon" style="" viewBox="0 0 1024 1024" version="1.1" xmlns="http://www.w3.org/2000/svg" p-id="1075" xmlns:xlink="http://www.w3.org/1999/xlink" width="30" height="30"><defs><style type="text/css"></style></defs><path d="M47.43512 48.371525c-2.445255 8.590195-4.11665 17.855309-4.11665 28.438457v870.524913c0 10.424136 1.671395 19.590309 4.021243 28.085097l488.581029-462.877584L47.43512 48.371525z" p-id="1076" fill="#bfbfbf"></path><path d="M726.583494 331.879761L156.132358 14.561988C133.390073 0.731456 111.001149-2.77388 92.085759 2.049491l490.641122 466.192105 143.856613-136.361835z" p-id="1077" fill="#bfbfbf"></path><path d="M936.907226 448.877438l-152.255994-84.700523-155.955678 147.718844 158.849701 151.001563 148.139343-81.354199c72.315236-41.208907 45.936871-107.541749 1.222628-132.665685z" p-id="1078" fill="#bfbfbf"></path><path d="M90.636981 1021.547678c19.205146 5.37108 42.141779 2.155499 65.463575-12.031927l572.189669-314.162263-146.464414-139.163985L90.636981 1021.547678z" p-id="1079" fill="#bfbfbf"></path></svg>